<svg id="Calque_2" data-name="Calque 2" xmlns="http://www.w3.org/2000/svg" viewBox="0 0 318.95 403.79"><defs><style>.cls-1{fill:#f5e8d5;}.cls-2{fill:#6d5a4a;}.cls-10,.cls-11,.cls-3,.cls-4{fill:none;}.cls-3{stroke:#6d5a4a;stroke-linejoin:round;stroke-width:20px;}.cls-10,.cls-11,.cls-3{stroke-linecap:round;}.cls-5{fill:#e0d3b1;}.cls-6{fill:#5d4c3c;}.cls-7{fill:#7ccdbe;}.cls-8{fill:#424244;}.cls-9{fill:#fff;}.cls-10{stroke:#fff;stroke-width:2px;}.cls-10,.cls-11{stroke-miterlimit:10;}.cls-11{stroke:#010e19;stroke-width:10px;}.cls-12{fill:#010e19;}</style></defs><title>backtotop2</title><path class="cls-1" d="M436.24,243.46s-33.75-31.32-66.05-45.25c0,0-2.4,22.9-4.87,32.64s-6,38.86-.1,50.7c2,4,4.08,10.53,11.17,10.61,13.89.16,35.84-9.82,35.84-9.82Z" transform="translate(-354.59 -198.21)"/><path class="cls-2" d="M405.24,247.93a59.71,59.71,0,0,0-20.45-19.37l-3,11.62c-1,3.88-4.58,21.48-2.42,25.13C379.39,265.31,388.92,255.61,405.24,247.93Z" transform="translate(-354.59 -198.21)"/><path class="cls-1" d="M532,245.46s33.75-31.32,66-45.25c0,0,2.41,22.9,4.88,32.64s6,38.86.1,50.7c-2,4-4.08,10.53-11.17,10.61-13.89.16-35.84-9.82-35.84-9.82Z" transform="translate(-354.59 -198.21)"/><path class="cls-2" d="M563,249.93a59.59,59.59,0,0,1,20.45-19.37l3,11.62c1,3.88,4.58,21.48,2.42,25.13A97.51,97.51,0,0,0,563,249.93Z" transform="translate(-354.59 -198.21)"/><path class="cls-3" d="M585.5,514.72c.09,2.73-4.16-51,43.79-57.33,38.87-5.12,35.45-35.66,32.76-43.49" transform="translate(-354.59 -198.21)"/><path class="cls-4" d="M468.38,230.83l.28,0-.13-.29Z" transform="translate(-354.59 -198.21)"/><path class="cls-4" d="M355.33,339.71c0-.2,0-.4-.05-.61l-.64.3Z" transform="translate(-354.59 -198.21)"/><path class="cls-1" d="M614.67,339.75c0-.27.05-.54.07-.81-.1.15-.18.3-.28.46A3.91,3.91,0,0,1,614.67,339.75Z" transform="translate(-354.59 -198.21)"/><path class="cls-5" d="M614.41,339.4h.05v0Z" transform="translate(-354.59 -198.21)"/><path class="cls-1" d="M615,332.5a82.34,82.34,0,0,0-3.78-24.61c-10.22-32.69-40.32-59.2-79.62-71.1a158.25,158.25,0,0,0-29.92-5.95l-.29,0C496,230.28,490.55,230,485,230s-11,.27-16.34.8l-.28,0a158.3,158.3,0,0,0-29.94,5.95c-39.47,11.94-69.67,38.62-79.78,71.49A82.49,82.49,0,0,0,355,332.5c0,2.22.1,4.42.28,6.6,0,.21,0,.41.05.61a84,84,0,0,0,7.88,28.71C381.67,407.31,429.23,426,485,426c55.6,0,103-18.52,121.61-57.22a84.12,84.12,0,0,0,8.06-29,3.91,3.91,0,0,0-.21-.35h-.05l0,0v0c.1-.16.18-.31.28-.46C614.9,336.81,615,334.66,615,332.5Z" transform="translate(-354.59 -198.21)"/><path class="cls-5" d="M354.64,339.4l0,0v0h.05Z" transform="translate(-354.59 -198.21)"/><path class="cls-6" d="M471.73,250.66l.23,0-.11-.23Z" transform="translate(-354.59 -198.21)"/><path class="cls-6" d="M381.75,337.32c0-.16,0-.32,0-.48l-.51.23Z" transform="translate(-354.59 -198.21)"/><path class="cls-6" d="M588.17,337.35c0-.21,0-.43.05-.64-.08.12-.14.24-.22.36Z" transform="translate(-354.59 -198.21)"/><path class="cls-6" d="M588,337.07h0Z" transform="translate(-354.59 -198.21)"/><path class="cls-2" d="M588.43,331.58a65.56,65.56,0,0,0-3-19.59c-8.14-26-32.09-47.11-63.37-56.59a125.78,125.78,0,0,0-23.82-4.73l-.23,0q-6.4-.63-13-.64t-13,.64l-.23,0a126,126,0,0,0-23.83,4.74c-31.41,9.5-55.45,30.73-63.49,56.9a65.12,65.12,0,0,0-2.92,19.28c0,1.77.08,3.52.22,5.26,0,.16,0,.32,0,.48A66.56,66.56,0,0,0,388,360.17C402.72,391.12,440.57,406,485,406s82-14.74,96.79-45.55a66.88,66.88,0,0,0,6.42-23.1l-.17-.28h0c.08-.12.14-.24.22-.36C588.35,335,588.43,333.3,588.43,331.58Z" transform="translate(-354.59 -198.21)"/><path class="cls-6" d="M381.2,337.07h0Z" transform="translate(-354.59 -198.21)"/><circle class="cls-7" cx="81.91" cy="122.29" r="21.5"/><circle class="cls-8" cx="81.91" cy="122.29" r="12.5"/><circle class="cls-9" cx="85.41" cy="118.79" r="4"/><circle class="cls-7" cx="179.91" cy="122.29" r="21.5"/><circle class="cls-8" cx="179.91" cy="122.29" r="12.5"/><circle class="cls-9" cx="176.41" cy="118.79" r="4"/><line class="cls-10" x1="77.41" y1="150.79" x2="34.41" y2="138.79"/><line class="cls-10" x1="77.41" y1="165.79" x2="34.41" y2="177.79"/><line class="cls-10" x1="78.23" y1="157.79" x2="33.59" y2="157.79"/><line class="cls-10" x1="187.41" y1="150.79" x2="230.41" y2="138.79"/><line class="cls-10" x1="187.41" y1="165.79" x2="230.41" y2="177.79"/><line class="cls-10" x1="186.59" y1="157.79" x2="231.23" y2="157.79"/><path class="cls-8" d="M486,339.5h10.92a1.24,1.24,0,0,1,1.07,1.86l-5.46,9.46-5.46,9.45a1.23,1.23,0,0,1-2.14,0l-5.46-9.45L474,341.36a1.24,1.24,0,0,1,1.07-1.86Z" transform="translate(-354.59 -198.21)"/><path class="cls-8" d="M475.27,373.61c-2.45,0-5-1.43-7.64-4.27a.5.5,0,1,1,.74-.68c2.89,3.14,5.64,4.41,8.17,3.8,5.87-1.44,8.95-12.48,9-12.59a.5.5,0,0,1,.61-.35.49.49,0,0,1,.35.61c-.13.48-3.26,11.72-9.71,13.3A6.28,6.28,0,0,1,475.27,373.61Z" transform="translate(-354.59 -198.21)"/><path class="cls-8" d="M496.73,373.61c2.45,0,5-1.43,7.64-4.27a.5.5,0,0,0-.74-.68c-2.89,3.14-5.64,4.41-8.17,3.8-5.87-1.44-8.95-12.48-9-12.59a.5.5,0,0,0-1,.26c.13.48,3.26,11.72,9.71,13.3A6.28,6.28,0,0,0,496.73,373.61Z" transform="translate(-354.59 -198.21)"/><rect class="cls-9" x="10.41" y="207.79" width="243" height="196" rx="19.9"/><path class="cls-11" d="M550.42,529.11" transform="translate(-354.59 -198.21)"/><path class="cls-11" d="M487.42,469.11" transform="translate(-354.59 -198.21)"/><path class="cls-12" d="M426.81,523.14l56.76-56.77a3.44,3.44,0,0,1,4.86,0l56.76,56.77a3.43,3.43,0,0,1-2.42,5.86H429.23A3.43,3.43,0,0,1,426.81,523.14Z" transform="translate(-354.59 -198.21)"/><ellipse class="cls-2" cx="378.15" cy="405.7" rx="16" ry="20.5" transform="translate(-406.72 -142.45) rotate(-7.89)"/><ellipse class="cls-2" cx="394" cy="403.5" rx="16" ry="20.5" transform="translate(-406.27 -140.29) rotate(-7.89)"/><ellipse class="cls-2" cx="409.85" cy="401.3" rx="16" ry="20.5" transform="translate(-405.81 -138.13) rotate(-7.89)"/><ellipse class="cls-2" cx="594.85" cy="405.7" rx="20.5" ry="16" transform="translate(-243.28 740.99) rotate(-82.11)"/><ellipse class="cls-2" cx="579" cy="403.5" rx="20.5" ry="16" transform="translate(-254.78 723.4) rotate(-82.11)"/><ellipse class="cls-2" cx="563.15" cy="401.3" rx="20.5" ry="16" transform="translate(-266.27 705.8) rotate(-82.11)"/></svg>