<?xml version="1.0" encoding="utf-8"?>
<!-- Generator: Adobe Illustrator 25.0.0, SVG Export Plug-In . SVG Version: 6.00 Build 0)  -->
<svg version="1.1" id="Calque_1" xmlns="http://www.w3.org/2000/svg" xmlns:xlink="http://www.w3.org/1999/xlink" x="0px" y="0px"
	 viewBox="0 0 500 500" style="enable-background:new 0 0 500 500;" xml:space="preserve">
<style type="text/css">
	.st0{fill:#0B131B;}
</style>
<path class="st0" d="M475.16,478.27L335.33,338.45c43.93-34.73,72.16-88.46,72.16-148.81C407.5,84.9,322.6,0,217.86,0
	C113.13,0,28.22,84.9,28.22,189.64c0,104.73,84.9,189.64,189.63,189.64c35.09,0,67.93-9.57,96.12-26.18l143.18,143.18
	c2.48,2.49,5.74,3.73,9,3.73c3.26,0,6.52-1.24,9-3.73C480.13,491.3,480.13,483.24,475.16,478.27 M53.68,189.64
	c0-90.53,73.65-164.18,164.18-164.18c90.53,0,164.18,73.65,164.18,164.18c0,90.53-73.65,164.18-164.18,164.18
	C127.33,353.82,53.68,280.17,53.68,189.64"/>
</svg>
