<?xml version="1.0" encoding="utf-8"?>
<!-- Generator: Adobe Illustrator 25.0.0, SVG Export Plug-In . SVG Version: 6.00 Build 0)  -->
<svg version="1.1" id="Calque_1" xmlns="http://www.w3.org/2000/svg" xmlns:xlink="http://www.w3.org/1999/xlink" x="0px" y="0px"
	 viewBox="0 0 500 500" style="enable-background:new 0 0 500 500;" xml:space="preserve">
<style type="text/css">
	.st0{display:none;fill:none;stroke:#010E19;stroke-width:10;stroke-miterlimit:10;}
	.st1{display:none;fill:#010E19;}
	.st2{display:none;opacity:0.37;fill:#1D1D1B;}
	.st3{fill:#010E19;}
</style>
<path class="st0" d="M258.5,267.7c-102.8,0-186.1,128.1-186.1,230.8h372.2C444.6,395.8,361.3,267.7,258.5,267.7"/>
<path class="st1" d="M369.9,111.4c0,61.5-49.9,111.4-111.4,111.4c-61.5,0-111.4-49.9-111.4-111.4C147.1,49.9,197,0,258.5,0
	C320,0,369.9,49.9,369.9,111.4"/>
<path class="st2" d="M484.2,478.3L344.4,338.5c43.9-34.7,72.1-88.4,72.1-148.8C416.6,85,331.7,0.1,227,0.1
	C122.3,0.1,37.4,85,37.4,189.7c0,104.7,84.9,189.6,189.6,189.6c35.1,0,67.9-9.6,96.1-26.2l143.2,143.2c2.5,2.5,5.7,3.7,9,3.7
	s6.5-1.2,9-3.7C489.2,491.3,489.2,483.2,484.2,478.3 M62.8,189.7c0-90.5,73.6-164.1,164.1-164.1c90.5,0,164.1,73.6,164.1,164.1
	c0,90.5-73.6,164.1-164.1,164.1C136.5,353.8,62.8,280.2,62.8,189.7"/>
<g>
	<path class="st3" d="M258.7,25c47.7,0,86.5,38.8,86.5,86.5s-38.8,86.5-86.5,86.5s-86.5-38.8-86.5-86.5S210.9,25,258.7,25 M258.7,0
		c-61.6,0-111.5,49.9-111.5,111.5c0,61.6,49.9,111.5,111.5,111.5c61.6,0,111.5-49.9,111.5-111.5C370.2,49.9,320.3,0,258.7,0L258.7,0
		z"/>
</g>
<g>
	<path class="st3" d="M258.5,293.9c19.9,0,39.9,6,59.4,18c18.7,11.4,36.8,28.4,52.2,49c15.1,20.2,27.7,43.7,36.3,68
		c5.5,15.5,9.3,31.1,11.4,46.1H99.2c2.1-15,5.9-30.6,11.4-46.1c8.6-24.3,21.2-47.8,36.3-68c15.5-20.6,33.5-37.6,52.2-49
		C218.6,299.9,238.6,293.9,258.5,293.9 M258.5,268.9C155.7,268.9,72.4,397.2,72.4,500h372.2C444.6,397.2,361.3,268.9,258.5,268.9
		L258.5,268.9z"/>
</g>
</svg>
