<?xml version="1.0" encoding="utf-8"?>
<!-- Generator: Adobe Illustrator 25.0.0, SVG Export Plug-In . SVG Version: 6.00 Build 0)  -->
<svg version="1.1" xmlns="http://www.w3.org/2000/svg" xmlns:xlink="http://www.w3.org/1999/xlink" x="0px" y="0px"
	 viewBox="0 0 500 500" style="enable-background:new 0 0 500 500;" xml:space="preserve">
<style type="text/css">
	.st0{display:none;}
	.st1{fill:none;stroke:#010E19;stroke-width:10;stroke-miterlimit:10;}
	.st2{fill:#010E19;}
	.st3{opacity:0.37;fill:#1D1D1B;}
	.st4{display:inline;}
	.st5{display:inline;opacity:0.61;fill:#010E19;}
	.st6{display:inline;opacity:0.61;}
</style>
<g id="Calque_1" class="st0">
	<path class="st1" d="M258.5,267.7c-102.8,0-186.1,128.1-186.1,230.8h372.2C444.6,395.8,361.3,267.7,258.5,267.7"/>
	<path class="st2" d="M369.9,111.4c0,61.5-49.9,111.4-111.4,111.4c-61.5,0-111.4-49.9-111.4-111.4C147.1,49.9,197,0,258.5,0
		C320,0,369.9,49.9,369.9,111.4"/>
	<path class="st3" d="M484.2,478.3L344.4,338.5c43.9-34.7,72.1-88.4,72.1-148.8C416.6,85,331.7,0.1,227,0.1
		C122.3,0.1,37.4,85,37.4,189.7c0,104.7,84.9,189.6,189.6,189.6c35.1,0,67.9-9.6,96.1-26.2l143.2,143.2c2.5,2.5,5.7,3.7,9,3.7
		s6.5-1.2,9-3.7C489.2,491.3,489.2,483.2,484.2,478.3 M62.8,189.7c0-90.5,73.6-164.1,164.1-164.1c90.5,0,164.1,73.6,164.1,164.1
		c0,90.5-73.6,164.1-164.1,164.1C136.5,353.8,62.8,280.2,62.8,189.7"/>
	<g class="st4">
		<path class="st2" d="M258.7,25c47.7,0,86.5,38.8,86.5,86.5s-38.8,86.5-86.5,86.5s-86.5-38.8-86.5-86.5S210.9,25,258.7,25 M258.7,0
			c-61.6,0-111.5,49.9-111.5,111.5c0,61.6,49.9,111.5,111.5,111.5c61.6,0,111.5-49.9,111.5-111.5C370.2,49.9,320.3,0,258.7,0
			L258.7,0z"/>
	</g>
	<g class="st4">
		<path class="st2" d="M258.5,293.9c19.9,0,39.9,6,59.4,18c18.7,11.4,36.8,28.4,52.2,49c15.1,20.2,27.7,43.7,36.3,68
			c5.5,15.5,9.3,31.1,11.4,46.1H99.2c2.1-15,5.9-30.6,11.4-46.1c8.6-24.3,21.2-47.8,36.3-68c15.5-20.6,33.5-37.6,52.2-49
			C218.6,299.9,238.6,293.9,258.5,293.9 M258.5,268.9C155.7,268.9,72.4,397.2,72.4,500h372.2C444.6,397.2,361.3,268.9,258.5,268.9
			L258.5,268.9z"/>
	</g>
</g>
<g id="Calque_2" class="st0">
	<polygon class="st5" points="30.3,500 487.9,500 473.1,390.1 45.1,390.1 	"/>
	<polygon class="st5" points="432.3,124.2 85.9,124.2 48.6,364.4 469.7,364.4 	"/>
	<g class="st6">
		<path class="st2" d="M161.6,126.5l22.2,5.7c7.8-30.4,36.8-109.3,76.3-109.3V0C196,0,165,113.5,161.6,126.5z"/>
		<path class="st2" d="M260.1,0v22.9c39.5,0,68.4,78.9,76.3,109.3l22.2-5.7C355.2,113.5,324.2,0,260.1,0z"/>
	</g>
</g>
<g id="Calque_3">
	<g>
		<path class="st2" d="M260.1,25c14.8,0,32.8,15.6,48,41.7c10.3,17.6,18.3,38.4,22.4,57.3H189.7c4.1-18.8,12.1-39.7,22.4-57.3
			C227.3,40.6,245.3,25,260.1,25 M260.1,0c-54.4,0-98.5,94.6-98.5,149h196.9C358.6,94.6,314.5,0,260.1,0L260.1,0z"/>
	</g>
	<g>
		<path class="st2" d="M410.9,149.2l29.6,190.2H77.7l29.6-190.2H410.9 M432.3,124.2H85.9L48.6,364.4h421.1L432.3,124.2L432.3,124.2z
			"/>
	</g>
	<g>
		<path class="st2" d="M451.3,415.1l8,59.9H58.9l8-59.9H451.3 M473.1,390.1h-428L30.3,500h457.6L473.1,390.1L473.1,390.1z"/>
	</g>
</g>
</svg>
